<svg width="53" height="66" viewBox="0 0 53 66" fill="none" xmlns="http://www.w3.org/2000/svg">
<path d="M7.30068 -3.19123e-07L1.4164 -6.19127e-08C0.828652 0.382115 0.0136685 0.791524 0.0136686 1.68028L9.20367e-07 21.0555C9.73309e-07 22.2667 0.883327 23.0804 2.05369 23.0804L6.6651 23.0753C7.80983 23.0753 8.67607 22.236 8.67607 21.0573L8.67095 1.80652C8.67095 0.881934 7.94481 0.426467 7.30068 -3.19123e-07Z" fill="#7AD0FA"/>
<path d="M16.3682 39.5131L16.3784 53.8441L31.776 53.8407L31.7897 42.3108L34.7574 42.2766C45.2565 41.6847 53.2509 32.8705 52.9587 22.5397C52.6666 12.1902 44.1562 3.79733 33.599 3.8451L11.5535 3.8451L11.5518 19.2286L33.6332 19.232C35.8424 19.2116 37.5219 20.9379 37.5492 23.0395C37.5783 25.1651 35.8612 26.917 33.652 26.9221L28.5434 26.9357C21.7348 26.9545 16.3631 32.6675 16.3682 39.5114L16.3682 39.5131Z" fill="#7AD0FA"/>
<path d="M33.5786 65.3793C34.761 65.3793 35.6272 64.5622 35.6289 63.4482L35.6375 58.7366C35.6392 57.6022 34.8037 56.722 33.6367 56.722L14.4718 56.722C13.3151 56.7237 12.5206 57.6346 12.5206 58.7315L12.5155 63.339C12.5155 64.4479 13.2946 65.3759 14.4735 65.3759L33.5786 65.3793Z" fill="#7AD0FA"/>
</svg>