<svg width="647" height="158" viewBox="0 0 647 158" fill="none" xmlns="http://www.w3.org/2000/svg">
<path d="M133.306 2.02319V2.31969L132.259 3.69073C132.034 3.98249 131.973 4.75103 132.034 5.22781L132.802 3.871C132.5 6.03667 132.547 8.13355 131.854 10.0786L126.469 25.2335C126.429 25.6012 126.559 26.5239 126.45 26.9533L123.968 36.8992C123.772 37.6891 123.403 46.4419 122.339 48.7285L118.408 57.1872C118.415 59.2556 117.812 62.752 116.257 64.3056C112.489 68.0677 108.863 71.8274 104.884 75.3973L97.2271 78.7134C94.1587 80.0417 92.8609 83.9342 90.5111 86.3205L87.2536 89.6295L83.6155 93.8517C79.4714 98.6622 76.9444 103.525 74.0533 109.064C73.4528 110.214 73.727 111.386 74.3558 112.244L68.8738 119.017L60.321 135.901L53.0542 147.965L50.2695 151.708L47.4564 156.459C47.3098 156.708 46.5628 157.171 46.3808 156.976C46.2271 156.813 45.9813 156.428 45.83 156.155L44.8064 154.305C43.8206 152.524 44.4447 151.421 43.9956 150.797C43.1564 149.632 42.3384 150.738 42.1209 148.657L39.575 147.763L38.0715 145.842C37.2985 146.124 36.7855 145.861 36.1496 145.408L34.3034 144.091C34.1591 143.752 33.8164 143.024 33.5162 143.048C33.2159 143.071 32.6982 143.354 32.3956 143.527L30.2066 142.72C27.2564 141.632 29.0766 143.361 26.9349 142.101L23.2235 139.919C22.337 140.215 20.8312 140.569 19.9494 140.647C19.6114 140.678 18.81 141.292 18.524 141.167L16.3704 140.215L10.6071 138.64L10.6496 136.653L7.76559 135.384L7.13442 138.225C6.03281 138.149 4.66881 137.919 3.59085 137.554L2.3214 135.682C1.38528 135.559 0.690275 135.348 0.378233 134.468C0.212756 134.003 0.546074 133.322 0.983405 132.554L0 130.471L1.15361 127.679L3.89107 128.725L4.74919 126.685L6.16992 126.766C6.57889 126.097 7.05404 125.528 7.74432 124.97L7.58593 123.794C8.28803 123.191 9.18633 122.812 10.2336 122.691C11.1177 122.589 12.4746 120.603 11.7559 119.823C10.8293 118.81 9.83405 117.994 9.0634 116.735C9.77732 115.859 10.9215 115.478 11.6425 115.01L13.432 113.85C13.7677 113.07 12.9639 111.675 12.2926 110.878C12.4557 109.858 12.8292 108.594 12.9025 107.576C12.971 106.627 13.0609 106.25 13.5171 105.489C14.5785 103.719 15.0088 103.817 17.394 102.958C17.4554 102.348 17.7037 101.373 18.3727 101.224C17.6635 100.489 17.4223 98.4795 18.427 97.5236C19.4317 96.5677 20.2544 96.1573 21.7106 95.7801L22.9351 92.5945C22.2023 91.9612 22.4221 91.0385 22.1621 90.5L20.6255 87.3144C20.3655 86.7783 19.661 85.9409 19.271 85.3835C19.0464 85.0609 19.1859 84.0742 19.0558 83.6875C18.7154 82.6913 17.3633 82.8407 16.4768 82.9142C15.6754 82.9807 15.4721 81.37 14.9851 81.0759L12.5337 79.5934C12.0349 79.2921 11.2808 79.0265 10.6614 78.7727C10.5503 77.2688 9.53856 76.5264 8.054 76.5643C5.80824 74.6975 6.61435 73.2316 3.94308 71.0375C4.59553 66.6468 5.61439 68.618 5.93353 66.0254C6.1061 64.6164 7.56229 64.0637 8.69226 63.6676C12.1767 62.4507 10.0137 64.0993 14.4674 62.6002C14.3965 61.7462 14.2641 60.7855 14.7085 60.2091C16.2475 58.2095 17.1103 59.9862 18.7793 57.5359C19.271 56.8148 20.5688 56.6369 21.2283 56.0533C22.3157 55.0879 23.0864 53.7738 24.0769 52.6281L27.2044 52.0944L28.1925 50.0568C29.2043 49.4425 29.6014 49.0298 29.6345 47.7821C29.6511 47.1677 29.2067 46.5557 28.5991 45.8821C27.6205 44.7957 28.2753 43.1471 29.365 42.3003L29.514 39.8974L31.2349 36.4271C30.6014 35.3336 30.5399 34.4631 30.7692 33.1822L29.878 30.8552L33.0008 28.3765C33.1521 27.0197 32.5351 26.1515 31.1404 26.0234L31.1593 24.0594C32.1829 23.5067 32.9323 23.2529 33.8046 23.649L35.23 21.194C35.6461 20.4776 37.4947 20.0222 38.2204 20.2736C39.4497 20.7433 40.9272 21.3078 41.9697 19.9747L45.0239 20.8714C45.4305 19.6071 46.7023 19.6782 47.4682 19.0591C48.7755 18.0012 50.2104 17.1947 51.8203 17.2682C52.1678 16.8674 52.8769 16.3289 53.2055 16.5424C53.5341 16.7559 53.8769 17.3513 54.1393 17.8304C54.4064 18.3238 55.7704 17.7901 56.3496 17.8802L59.1367 18.3167C62.1649 15.0646 63.8362 17.9538 67.1411 19.0591C67.7911 18.5752 69.0819 17.4343 69.7461 18.2123C69.9967 18.5041 70.3891 19.2536 70.661 19.5122C71.4364 20.2499 74.2636 18.3214 76.2848 19.4458C76.89 19.7826 77.5164 20.2807 78.1949 20.3092L81.6936 15.864C84.1804 16.1795 86.2442 18.1506 88.7098 18.1791L103.763 18.3475L104.106 8.87125L105.021 0.139796C105.993 0.040171 107.094 -0.0215019 107.903 0.00696251C108.61 1.08861 109.586 1.62943 110.676 1.92594L111.988 1.02694C113.404 1.45627 114.86 1.97575 116.38 2.00421L130.961 2.277C131.708 2.29123 132.649 2.05403 133.301 2.01845L133.306 2.02319Z" fill="#7AD0FA"/>
<path d="M53.9491 130.436V64.9678H73.7906V90.0211L92.2606 64.9678H115.668L91.3462 95.873L115.851 130.436H92.4435L73.7906 102.456V130.436H53.9491ZM115.753 117.452L143.458 80.329H116.667V64.9678H168.786V77.9516L141.995 115.074H169.7V130.436H115.753V117.452ZM196.014 64.9678L218.507 106.571V64.9678H236.977V130.436H216.404L193.911 89.0153V130.436H175.441V64.9678H196.014Z" fill="white"/>
<path d="M300.815 67.924H316.904V130.436H300.815V67.924ZM365.645 130.436H350.143V124.235C346.959 129.011 342.266 132.112 336.568 132.112C327.686 132.112 321.401 124.905 321.401 114.85V87.197H337.574V111.163C337.574 115.185 339.752 118.034 343.272 118.034C346.791 118.034 349.473 115.101 349.473 110.911V87.197H365.645V130.436ZM387.167 130.436H370.994V87.197H386.497V92.5599C389.094 87.9512 394.038 85.5211 399.317 85.5211C405.183 85.5211 409.96 88.2864 412.39 92.8113C414.987 88.2864 420.937 85.5211 426.635 85.5211C436.271 85.5211 442.724 92.3086 442.724 102.196V130.436H426.551V106.47C426.551 102.699 424.372 99.7664 420.602 99.5988C416.915 99.5988 414.568 102.448 414.568 106.47V130.436H398.48V106.47C398.48 102.364 396.217 99.5988 392.865 99.5988C389.346 99.5988 387.167 102.364 387.167 106.47V130.436ZM471.127 99.6826C466.267 99.6826 462.748 103.537 462.748 108.816C462.748 114.012 466.267 117.866 471.127 117.866C475.987 117.866 479.507 114.095 479.507 108.816C479.507 103.537 475.987 99.6826 471.127 99.6826ZM495.596 108.816C495.596 122.643 487.719 132.112 476.239 132.112C470.876 132.112 466.435 129.849 463.334 125.911V130.436H447.245V67.924H463.418V91.722C466.518 87.7836 470.96 85.5211 476.239 85.5211C487.803 85.5211 495.596 94.99 495.596 108.816ZM513.94 104.71H529.359C529.107 100.604 525.923 97.0849 521.566 97.0849C517.46 97.0849 514.778 100.102 513.94 104.71ZM497.433 108.649C497.433 94.9062 507.572 85.5211 521.901 85.5211C536.23 85.5211 545.615 94.9062 545.615 108.816C545.615 110.073 545.531 112.336 545.448 113.174H514.024C515.113 117.699 518.046 120.464 522.404 120.464C526.091 120.464 528.772 118.453 529.778 115.688L544.023 117.531C542.096 125.994 532.794 132.112 521.566 132.112C507.32 132.112 497.433 122.643 497.433 108.649ZM549.257 87.197H564.759V92.6437C567.106 88.3702 571.547 85.5211 576.156 85.5211C577.748 85.5211 579.424 85.9401 581.016 86.5266V100.856C578.418 99.7664 575.401 99.096 573.39 99.096C568.614 99.096 565.43 102.783 565.43 108.146V130.436H549.257V87.197ZM623.848 116.023C623.848 125.576 614.965 132.447 601.893 132.447C589.994 132.447 581.363 125.659 581.447 116.274H594.435C594.435 119.626 597.704 122.056 602.228 122.056C605.832 122.056 608.429 120.296 608.429 118.034C608.429 115.352 605.245 114.347 599.296 113.928C589.994 113.174 581.699 111.414 581.699 100.604C581.699 91.6382 590.078 85.1859 601.391 85.1859C613.373 85.1859 622.088 91.5544 622.088 100.353L608.429 100.269C608.346 97.5877 605.413 95.5766 601.474 95.5766C598.29 95.5766 595.86 97.1687 595.86 99.2636C595.86 101.861 600.217 102.448 603.066 102.951C612.368 103.872 623.848 105.632 623.848 116.023Z" fill="#7AD0FA"/>
<path d="M250.987 64.5302L245.103 64.5302C244.515 64.9123 243.7 65.3217 243.7 66.2105L243.686 85.5857C243.686 86.7969 244.57 87.6106 245.74 87.6106L250.351 87.6055C251.496 87.6055 252.362 86.7662 252.362 85.5874L252.357 66.3367C252.357 65.4121 251.631 64.9566 250.987 64.5302Z" fill="#7AD0FA"/>
<path d="M260.054 104.043L260.065 118.374L275.462 118.371L275.476 106.841L278.444 106.807C288.943 106.215 296.937 97.4007 296.645 87.0699C296.353 76.7204 287.843 68.3275 277.285 68.3753L255.24 68.3753L255.238 83.7588L277.319 83.7622C279.529 83.7418 281.208 85.4681 281.236 87.5697C281.265 89.6952 279.547 91.4472 277.338 91.4523L272.23 91.4659C265.421 91.4847 260.049 97.1977 260.054 104.042L260.054 104.043Z" fill="#7AD0FA"/>
<path d="M277.265 129.909C278.447 129.909 279.313 129.092 279.315 127.978L279.324 123.267C279.325 122.132 278.49 121.252 277.323 121.252L258.158 121.252C257.001 121.254 256.207 122.165 256.207 123.262L256.202 127.869C256.202 128.978 256.981 129.906 258.16 129.906L277.265 129.909Z" fill="#7AD0FA"/>
</svg>